<?xml version="1.0" encoding="UTF-8" standalone="no"?>
<!DOCTYPE svg PUBLIC "-//W3C//DTD SVG 1.1//EN" "http://www.w3.org/Graphics/SVG/1.1/DTD/svg11.dtd">
<!-- Created with Vectornator (http://vectornator.io/) -->
<svg height="100%" stroke-miterlimit="10" style="fill-rule:nonzero;clip-rule:evenodd;stroke-linecap:round;stroke-linejoin:round;" version="1.1" viewBox="0 0 800 200" width="100%" xml:space="preserve" xmlns="http://www.w3.org/2000/svg" xmlns:vectornator="http://vectornator.io" xmlns:xlink="http://www.w3.org/1999/xlink">
<defs/>
<g id="Layer-1" vectornator:layerName="Layer 1">
<path d="M145.884 122.212C146.31 121.999 146.523 122.212 146.523 122.851C145.884 123.383 145.272 124.049 144.686 124.847C144.101 125.646 143.595 126.364 143.169 127.003C142.424 128.387 140.933 129.346 138.697 129.878C136.035 130.517 133.161 131.076 130.073 131.555C126.985 132.034 123.844 132.487 120.65 132.913C117.456 133.338 114.315 133.658 111.227 133.871C108.14 134.084 105.212 134.19 102.443 134.19C98.3975 134.19 95.0968 134.057 92.5415 133.791C89.9862 133.525 87.9898 133.099 86.5524 132.513C85.115 131.928 84.1302 131.236 83.5978 130.437C83.0655 129.638 82.7993 128.707 82.7993 127.642C82.7993 125.726 83.3849 123.703 84.5561 121.573C84.982 120.828 85.9402 119.178 87.4308 116.622C88.9214 114.067 90.4653 111.378 92.0624 108.557C93.6595 105.735 95.0968 103.18 96.3745 100.891C97.6522 98.6018 98.291 97.404 98.291 97.2975C98.291 96.9781 98.1313 96.7652 97.8119 96.6587C97.4925 96.5522 96.7472 96.499 95.576 96.499C95.0436 96.499 94.7774 96.3393 94.7774 96.0198C94.7774 95.2745 95.4162 94.7954 96.6939 94.5825C99.1428 94.2631 100.953 92.9854 102.124 90.7495C102.55 90.0042 103.482 88.3538 104.919 85.7985C106.356 83.2432 107.847 80.5015 109.391 77.5735C110.935 74.6455 112.319 71.9837 113.543 69.5881C114.768 67.1925 115.38 65.7817 115.38 65.3558C115.38 64.9299 115.06 64.717 114.422 64.717C111.227 64.717 108.033 64.8234 104.839 65.0364C101.645 65.2493 98.8234 65.6752 96.3745 66.3141L96.0551 66.1543C96.268 64.3443 96.6939 63.1199 97.3328 62.4811C100.633 62.694 104.12 62.8537 107.794 62.9602C111.467 63.0666 114.954 63.1199 118.255 63.1199C119.426 63.1199 121.449 63.0666 124.323 62.9602C127.198 62.8537 130.419 62.7472 133.986 62.6408C137.553 62.5343 141.146 62.4278 144.766 62.3213C148.386 62.2149 151.474 62.1616 154.029 62.1616C154.668 62.1616 154.988 62.4278 154.988 62.9602C154.775 63.4925 154.349 64.3177 153.71 65.4357C153.071 66.5536 152.485 67.6982 151.953 68.8694L151.314 68.7097C151.314 68.0709 151.181 67.4853 150.915 66.9529C150.649 66.4205 150.356 66.1011 150.037 65.9946C146.736 65.4623 143.169 65.0896 139.336 64.8767C135.503 64.6637 131.67 64.5573 127.837 64.5573C126.134 64.5573 124.856 65.0896 124.004 66.1543C121.129 69.9874 118.228 74.3261 115.3 79.1706C112.372 84.0151 109.63 88.7265 107.075 93.3048C106.649 94.2631 106.968 94.7422 108.033 94.7422C109.524 94.8487 111.014 94.9019 112.505 94.9019C113.996 94.9019 115.54 94.9019 117.137 94.9019C122.034 94.9019 126.32 94.7688 129.993 94.5026C133.666 94.2364 137.366 93.6775 141.093 92.8257L141.572 93.3048C141.359 93.7307 141.093 94.2631 140.773 94.9019C140.454 95.5407 140.188 96.1263 139.975 96.6587C139.868 97.0846 139.443 97.2975 138.697 97.2975C135.929 97.191 132.921 97.1112 129.674 97.058C126.426 97.0047 123.152 96.9781 119.852 96.9781C117.403 96.9781 115.007 96.9781 112.665 96.9781C110.429 96.9781 108.299 97.0313 106.276 97.1378C105.425 97.1378 104.839 97.4572 104.52 98.0961C102.71 101.29 100.873 104.644 99.0097 108.158C97.1464 111.671 95.5227 115.078 94.1386 118.379C93.0739 120.828 92.5415 123.011 92.5415 124.927C92.5415 129.931 96.3213 132.433 103.881 132.433C106.543 132.433 109.817 132.22 113.703 131.795C117.589 131.369 121.555 130.703 125.601 129.798C129.647 128.893 133.507 127.802 137.18 126.524C140.853 125.247 143.755 123.809 145.884 122.212Z" fill="#000000" fill-rule="nonzero" opacity="1" stroke="none"/>
<path d="M265.21 26.7063C265.21 27.3452 264.89 27.984 264.252 28.6228C263.613 29.2617 263.187 30.1667 262.974 31.3379C262.761 32.0832 262.388 32.4558 261.856 32.4558C261.537 32.4558 261.217 32.376 260.898 32.2163C260.578 32.0566 260.179 31.8702 259.7 31.6573C259.221 31.4444 258.635 31.258 257.943 31.0983C257.251 30.9386 256.266 30.8588 254.989 30.8588C253.178 30.8588 251.368 31.0983 249.558 31.5774C247.748 32.0566 246.098 32.7753 244.607 33.7335C241.626 35.65 238.405 38.3651 234.945 41.8786C231.485 45.3922 228.317 49.2252 225.442 53.3777C218.309 63.599 212.054 73.1549 206.677 82.0453C201.3 90.9358 196.801 98.8946 193.181 105.922C189.561 112.949 186.846 118.938 185.036 123.889C183.226 128.84 182.321 132.487 182.321 134.829C182.321 136.639 182.72 138.13 183.519 139.301C184.317 140.472 185.622 141.058 187.432 141.058C190.307 141.058 193.048 140.153 195.657 138.343C198.265 136.533 200.741 134.27 203.083 131.555C205.426 128.84 207.555 125.832 209.472 122.531C211.388 119.231 213.038 116.143 214.423 113.268C214.635 112.842 214.982 112.683 215.461 112.789C215.94 112.896 215.913 113.322 215.381 114.067C213.464 117.9 211.415 121.547 209.232 125.007C207.049 128.467 204.76 131.502 202.365 134.11C199.969 136.719 197.467 138.769 194.858 140.259C192.25 141.75 189.668 142.495 187.112 142.495C184.238 142.495 182.108 141.723 180.724 140.179C179.34 138.635 178.648 136.639 178.648 134.19C178.648 131.635 179.154 128.893 180.165 125.965C181.177 123.037 182.747 119.444 184.876 115.185C181.895 118.805 179.287 121.839 177.051 124.288C174.815 126.737 172.845 128.654 171.142 130.038C169.438 131.422 167.974 132.407 166.75 132.992C165.525 133.578 164.434 133.871 163.476 133.871C161.985 133.871 160.973 133.472 160.441 132.673C159.909 131.874 159.643 130.836 159.643 129.559C159.643 128.6 159.909 127.349 160.441 125.805C160.973 124.262 161.719 122.744 162.677 121.254C166.616 114.865 171.008 109.648 175.853 105.602C180.697 101.556 186.686 98.8946 193.82 97.6169C198.931 88.6733 203.829 80.6346 208.513 73.5009C213.198 66.3673 218.309 59.3934 223.845 52.5791C228.424 46.8296 232.975 41.7722 237.5 37.4068C242.026 33.0414 246.684 29.7408 251.475 27.5049C255.095 25.8013 258.236 24.9495 260.898 24.9495C262.175 24.9495 263.214 25.1092 264.012 25.4287C264.811 25.7481 265.21 26.174 265.21 26.7063ZM192.542 100.013C188.497 100.119 185.382 100.891 183.2 102.328C181.017 103.766 179.074 105.549 177.37 107.679C173.324 112.683 170.449 116.968 168.746 120.535C167.042 124.102 166.191 126.737 166.191 128.441C166.191 128.973 166.404 129.346 166.829 129.559C167.255 129.772 167.575 129.878 167.788 129.878C168.533 129.878 169.89 129.08 171.86 127.482C173.83 125.885 176.013 123.729 178.408 121.014C180.804 118.299 183.279 115.132 185.835 111.512C188.39 107.892 190.626 104.059 192.542 100.013Z" fill="#000000" fill-rule="nonzero" opacity="1" stroke="none"/>
<path d="M259.963 113.907C258.153 116.143 255.997 118.459 253.495 120.855C250.993 123.25 248.278 125.433 245.35 127.403C242.422 129.372 239.387 130.969 236.246 132.194C233.105 133.418 229.991 134.03 226.903 134.03C221.899 134.03 219.397 131.795 219.397 127.323C219.397 124.341 220.169 121.121 221.713 117.66C223.257 114.2 225.253 111.006 227.702 108.078C230.151 105.15 232.839 102.701 235.767 100.731C238.695 98.7615 241.49 97.7766 244.152 97.7766C245.642 97.7766 246.68 98.0428 247.266 98.5752C247.852 99.1075 248.144 99.7996 248.144 100.651C248.144 101.929 247.745 103.313 246.947 104.804C246.148 106.294 244.95 107.705 243.353 109.036C241.756 110.367 239.733 111.485 237.284 112.39C234.835 113.295 231.907 113.747 228.5 113.747C227.968 114.706 227.382 116.223 226.744 118.299C226.105 120.375 225.785 122.478 225.785 124.608C225.785 128.973 227.755 131.156 231.694 131.156C234.143 131.156 236.672 130.57 239.281 129.399C241.889 128.228 244.418 126.764 246.867 125.007C249.316 123.25 251.578 121.334 253.654 119.257C255.731 117.181 257.461 115.238 258.845 113.428C259.058 113.215 259.297 113.162 259.564 113.268C259.83 113.375 259.963 113.588 259.963 113.907ZM243.194 101.45C243.194 100.066 242.501 99.3737 241.117 99.3737C240.053 99.3737 238.961 99.773 237.843 100.572C236.725 101.37 235.634 102.408 234.569 103.686C233.505 104.964 232.493 106.348 231.535 107.838C230.577 109.329 229.778 110.766 229.139 112.15C229.352 112.257 229.725 112.337 230.257 112.39C230.789 112.443 231.215 112.47 231.535 112.47C234.622 112.47 237.338 111.378 239.68 109.196C242.022 107.013 243.194 104.431 243.194 101.45Z" fill="#000000" fill-rule="nonzero" opacity="1" stroke="none"/>
<path d="M314.926 112.31C313.01 114.972 310.8 117.66 308.298 120.375C305.796 123.09 303.134 125.513 300.313 127.642C297.491 129.772 294.616 131.528 291.688 132.913C288.76 134.297 285.912 134.989 283.144 134.989C281.866 134.989 280.695 134.802 279.63 134.43C278.566 134.057 278.033 133.125 278.033 131.635C278.033 130.144 278.566 128.254 279.63 125.965C280.695 123.676 281.946 121.254 283.384 118.698C284.821 116.143 286.312 113.535 287.855 110.873C289.399 108.211 290.65 105.762 291.609 103.526C291.822 102.994 291.848 102.541 291.688 102.169C291.529 101.796 291.183 101.769 290.65 102.089C289.479 102.834 288.095 103.846 286.498 105.123C284.901 106.401 283.277 107.758 281.627 109.196C279.977 110.633 278.379 112.097 276.836 113.588C275.292 115.078 274.041 116.409 273.082 117.581C271.379 120.242 269.915 122.691 268.69 124.927C267.466 127.163 265.949 129.665 264.139 132.433C263.713 133.072 263.393 133.392 263.181 133.392C262.648 133.392 262.196 132.806 261.823 131.635C261.45 130.464 261.264 129.718 261.264 129.399C261.264 128.441 261.929 127.136 263.26 125.486C264.591 123.836 266.055 121.999 267.652 119.976C269.356 116.569 271.113 112.976 272.923 109.196C274.733 105.416 276.277 102.036 277.554 99.0543C277.874 98.5219 278.353 98.2558 278.992 98.2558C279.63 98.2558 280.216 98.5219 280.748 99.0543C281.281 99.5867 281.547 100.172 281.547 100.811C281.547 101.237 280.775 102.701 279.231 105.203C277.687 107.705 276.17 110.607 274.68 113.907C276.703 112.097 278.912 110.181 281.307 108.158C283.703 106.135 285.992 104.271 288.175 102.568C290.358 100.864 292.274 99.4536 293.924 98.3356C295.575 97.2177 296.719 96.6587 297.358 96.6587C297.784 96.6587 298.183 96.8982 298.556 97.3774C298.929 97.8565 299.115 98.309 299.115 98.7349C299.115 99.1608 298.849 99.7996 298.316 100.651C297.145 102.355 295.708 104.538 294.004 107.199C292.301 109.861 290.677 112.603 289.133 115.424C287.589 118.246 286.285 120.934 285.22 123.49C284.156 126.045 283.623 128.068 283.623 129.559C283.623 130.836 283.889 131.715 284.422 132.194C284.954 132.673 285.806 132.913 286.977 132.913C288.787 132.913 290.917 132.22 293.365 130.836C295.814 129.452 298.343 127.722 300.952 125.646C303.56 123.57 306.036 121.254 308.378 118.698C310.72 116.143 312.637 113.694 314.128 111.352C314.34 111.032 314.66 110.953 315.086 111.112C315.512 111.272 315.458 111.671 314.926 112.31Z" fill="#000000" fill-rule="nonzero" opacity="1" stroke="none"/>
<path d="M372.787 172.361L373.267 172.041C374.544 172.68 375.982 173.159 377.579 173.478C379.176 173.798 380.72 173.958 382.21 173.958C385.83 173.958 389.397 172.973 392.911 171.003C396.424 169.033 399.805 166.505 403.052 163.417C406.3 160.329 409.387 156.789 412.315 152.796C415.243 148.804 417.958 144.837 420.46 140.898C422.963 136.958 425.198 133.152 427.168 129.479C429.138 125.805 430.815 122.691 432.199 120.136C432.199 119.284 431.88 119.178 431.241 119.816C430.283 120.668 428.712 121.946 426.529 123.649C424.347 125.353 421.738 127.03 418.704 128.68C415.669 130.331 412.262 131.795 408.482 133.072C404.703 134.35 400.736 134.989 396.584 134.989C388.812 134.989 382.929 133.365 378.936 130.118C374.944 126.87 372.947 122.425 372.947 116.782C372.947 114.546 373.586 111.245 374.864 106.88C376.141 102.515 378.271 97.8299 381.252 92.8257C384.233 87.8215 388.146 82.9504 392.991 78.2123C397.835 73.4743 403.824 69.6147 410.958 66.6335C415.217 64.9299 419.449 63.7587 423.655 63.1199C427.86 62.4811 431.72 62.1616 435.233 62.1616C437.044 62.1616 439.013 62.2681 441.143 62.4811C443.272 62.694 445.348 63.04 447.371 63.5192C449.394 63.9983 451.258 64.6637 452.961 65.5155C454.665 66.3673 455.996 67.3788 456.954 68.55C456.528 70.36 455.863 72.5693 454.957 75.1779C454.052 77.7865 453.174 80.049 452.322 81.9655L451.204 82.2849L451.045 81.8058C451.258 81.167 451.417 80.5281 451.524 79.8893C451.63 79.2504 451.683 78.5584 451.683 77.8131C451.683 75.8966 451.124 74.0865 450.007 72.383C448.889 70.6794 447.371 69.1888 445.455 67.9111C443.538 66.6335 441.302 65.6486 438.747 64.9565C436.192 64.2645 433.477 63.9184 430.602 63.9184C425.172 63.9184 420.114 65.063 415.43 67.3522C410.745 69.6413 406.486 72.7024 402.653 76.5354C400.311 78.7713 397.808 81.6727 395.147 85.2395C392.485 88.8063 390.009 92.6393 387.72 96.7385C385.431 100.838 383.541 104.964 382.051 109.116C380.56 113.268 379.815 117.101 379.815 120.615C379.815 124.874 381.252 128.121 384.127 130.357C387.001 132.593 391.154 133.711 396.584 133.711C401.269 133.711 405.954 132.726 410.638 130.756C415.323 128.787 419.609 126.338 423.495 123.41C427.381 120.482 430.762 117.234 433.636 113.668C436.511 110.101 438.534 106.72 439.705 103.526C440.131 102.461 440.318 101.663 440.264 101.131C440.211 100.598 439.599 100.332 438.428 100.332C436.618 100.438 434.488 100.598 432.039 100.811C429.59 101.024 426.929 101.237 424.054 101.45L423.575 101.29L424.054 99.5334C426.183 99.5334 428.552 99.4802 431.161 99.3737C433.769 99.2673 436.378 99.1342 438.987 98.9745C441.595 98.8147 444.097 98.5486 446.493 98.1759C448.889 97.8033 451.045 97.404 452.961 96.9781C453.387 97.2975 453.387 97.7766 452.961 98.4155C451.258 98.8414 450.086 99.3471 449.448 99.9327C448.809 100.518 448.117 101.556 447.371 103.047C445.348 106.987 443.033 111.485 440.424 116.542C437.815 121.6 435.1 126.684 432.279 131.795C429.457 136.905 426.609 141.723 423.734 146.248C420.86 150.773 418.145 154.473 415.589 157.348C414.525 158.626 413.007 160.276 411.038 162.299C409.068 164.322 406.699 166.265 403.931 168.128C401.162 169.992 397.968 171.615 394.348 172.999C390.728 174.384 386.682 175.076 382.21 175.076C380.72 175.076 379.229 174.969 377.738 174.756C376.248 174.543 374.651 174.117 372.947 173.478L372.787 172.361Z" fill="#000000" fill-rule="nonzero" opacity="1" stroke="none"/>
<path d="M521.18 111.032C518.731 114.014 516.043 117.022 513.115 120.056C510.187 123.09 507.232 125.832 504.251 128.281C501.27 130.73 498.315 132.7 495.387 134.19C492.459 135.681 489.771 136.426 487.322 136.426C485.192 136.426 483.702 135.894 482.85 134.829C481.998 133.764 481.572 132.433 481.572 130.836C481.572 129.346 482.025 127.349 482.93 124.847C483.835 122.345 485.192 119.657 487.002 116.782C485.618 118.592 484.021 120.508 482.211 122.531C480.401 124.554 478.538 126.391 476.621 128.041C474.705 129.692 472.788 131.076 470.872 132.194C468.955 133.312 467.252 133.871 465.761 133.871C463.525 133.871 462.407 132.753 462.407 130.517C462.407 128.068 463.366 124.98 465.282 121.254C467.199 117.527 469.781 113.934 473.028 110.473C476.275 107.013 479.975 104.032 484.128 101.53C488.28 99.0277 492.592 97.7766 497.064 97.7766C497.596 96.7119 498.076 95.9666 498.501 95.5407C498.927 95.1148 499.353 94.7954 499.779 94.5825L504.251 93.3048L504.57 93.4645C504.038 93.9969 503.532 94.6623 503.053 95.4609C502.574 96.2594 502.068 97.0846 501.536 97.9364C502.068 97.9364 502.867 97.9896 503.932 98.0961C504.996 98.2025 505.795 98.309 506.327 98.4155C506.86 98.6284 507.126 98.8946 507.126 99.214C507.126 99.5334 506.966 99.6931 506.647 99.6931C506.008 99.4802 505.05 99.3205 503.772 99.214C502.494 99.1075 501.536 99.0543 500.897 99.0543C495.999 107.679 492.406 114.519 490.117 119.577C487.828 124.634 486.683 128.387 486.683 130.836C486.683 131.795 486.923 132.593 487.402 133.232C487.881 133.871 488.866 134.19 490.356 134.19C492.06 134.19 494.083 133.578 496.425 132.354C498.768 131.129 501.27 129.426 503.932 127.243C506.593 125.06 509.335 122.531 512.157 119.657C514.978 116.782 517.667 113.747 520.222 110.553C520.435 110.234 520.648 110.154 520.861 110.314C521.074 110.473 521.18 110.713 521.18 111.032ZM496.266 98.8946C492.646 98.8946 489.185 100.172 485.885 102.728C482.584 105.283 479.656 108.291 477.101 111.751C474.545 115.211 472.496 118.645 470.952 122.052C469.408 125.459 468.636 127.962 468.636 129.559C468.636 130.41 468.955 130.836 469.594 130.836C470.233 130.836 471.218 130.41 472.549 129.559C473.88 128.707 475.397 127.562 477.101 126.125C478.804 124.688 480.534 123.011 482.291 121.094C484.048 119.178 485.672 117.101 487.162 114.865C488.866 112.31 490.516 109.595 492.113 106.72C493.71 103.846 495.148 101.29 496.425 99.0543L496.266 98.8946Z" fill="#000000" fill-rule="nonzero" opacity="1" stroke="none"/>
<path d="M559.534 100.332C558.895 101.077 558.229 101.982 557.537 103.047C556.845 104.112 556.393 104.91 556.18 105.443C556.073 105.762 555.86 105.922 555.541 105.922C555.434 105.922 555.275 105.762 555.062 105.443C554.849 105.123 554.556 104.777 554.183 104.405C553.811 104.032 553.305 103.686 552.666 103.366C552.027 103.047 551.122 102.887 549.951 102.887C548.567 102.887 547.023 103.366 545.32 104.325C543.616 105.283 542.125 106.348 540.848 107.519C538.825 109.222 537.041 111.086 535.497 113.109C533.954 115.132 532.49 117.234 531.105 119.417C529.721 121.6 528.39 123.836 527.113 126.125C525.835 128.414 524.451 130.73 522.96 133.072C522.854 133.392 522.534 133.551 522.002 133.551C521.789 133.551 521.337 133.232 520.645 132.593C519.952 131.954 519.606 131.475 519.606 131.156C519.606 130.517 519.979 129.559 520.724 128.281C522.428 125.3 524.158 122.292 525.915 119.257C527.672 116.223 529.322 113.375 530.866 110.713C532.41 108.051 533.767 105.735 534.938 103.766C536.11 101.796 536.908 100.332 537.334 99.3737C537.866 98.4155 538.239 97.9364 538.452 97.9364C538.665 97.9364 539.197 98.2025 540.049 98.7349C540.901 99.2673 541.327 100.013 541.327 100.971C541.327 101.29 541.14 101.823 540.768 102.568C540.395 103.313 539.969 104.085 539.49 104.884C539.011 105.682 538.559 106.454 538.133 107.199C537.707 107.945 537.387 108.477 537.174 108.797C536.855 109.329 536.802 109.595 537.015 109.595C537.228 109.595 537.494 109.435 537.813 109.116C538.878 108.051 540.182 106.88 541.726 105.602C543.27 104.325 544.894 103.127 546.597 102.009C548.301 100.891 549.978 99.9593 551.628 99.214C553.278 98.4687 554.742 98.0961 556.02 98.0961C556.978 98.0961 557.803 98.3356 558.495 98.8147C559.188 99.2939 559.534 99.7996 559.534 100.332Z" fill="#000000" fill-rule="nonzero" opacity="1" stroke="none"/>
<path d="M667.041 26.7063C667.041 27.3452 666.721 27.984 666.083 28.6228C665.444 29.2617 665.018 30.1667 664.805 31.3379C664.592 32.0832 664.219 32.4558 663.687 32.4558C663.368 32.4558 663.048 32.376 662.729 32.2163C662.409 32.0566 662.01 31.8702 661.531 31.6573C661.052 31.4444 660.466 31.258 659.774 31.0983C659.082 30.9386 658.097 30.8588 656.82 30.8588C655.009 30.8588 653.199 31.0983 651.389 31.5774C649.579 32.0566 647.929 32.7753 646.438 33.7335C643.457 35.65 640.236 38.3651 636.776 41.8786C633.316 45.3922 630.148 49.2252 627.273 53.3777C620.14 63.599 613.885 73.1549 608.508 82.0453C603.131 90.9358 598.632 98.8946 595.012 105.922C591.392 112.949 588.677 118.938 586.867 123.889C585.057 128.84 584.152 132.487 584.152 134.829C584.152 136.639 584.551 138.13 585.35 139.301C586.148 140.472 587.453 141.058 589.263 141.058C592.138 141.058 594.879 140.153 597.488 138.343C600.096 136.533 602.572 134.27 604.914 131.555C607.257 128.84 609.386 125.832 611.303 122.531C613.219 119.231 614.869 116.143 616.254 113.268C616.467 112.842 616.813 112.683 617.292 112.789C617.771 112.896 617.744 113.322 617.212 114.067C615.295 117.9 613.246 121.547 611.063 125.007C608.88 128.467 606.591 131.502 604.196 134.11C601.8 136.719 599.298 138.769 596.689 140.259C594.081 141.75 591.499 142.495 588.943 142.495C586.069 142.495 583.939 141.723 582.555 140.179C581.171 138.635 580.479 136.639 580.479 134.19C580.479 131.635 580.985 128.893 581.996 125.965C583.008 123.037 584.578 119.444 586.707 115.185C583.726 118.805 581.118 121.839 578.882 124.288C576.646 126.737 574.676 128.654 572.973 130.038C571.269 131.422 569.805 132.407 568.581 132.992C567.356 133.578 566.265 133.871 565.307 133.871C563.816 133.871 562.804 133.472 562.272 132.673C561.74 131.874 561.474 130.836 561.474 129.559C561.474 128.6 561.74 127.349 562.272 125.805C562.804 124.262 563.55 122.744 564.508 121.254C568.447 114.865 572.839 109.648 577.684 105.602C582.528 101.556 588.518 98.8946 595.651 97.6169C600.762 88.6733 605.66 80.6346 610.344 73.5009C615.029 66.3673 620.14 59.3934 625.676 52.5791C630.255 46.8296 634.806 41.7722 639.331 37.4068C643.857 33.0414 648.515 29.7408 653.306 27.5049C656.926 25.8013 660.067 24.9495 662.729 24.9495C664.006 24.9495 665.045 25.1092 665.843 25.4287C666.642 25.7481 667.041 26.174 667.041 26.7063ZM594.373 100.013C590.328 100.119 587.213 100.891 585.031 102.328C582.848 103.766 580.905 105.549 579.201 107.679C575.155 112.683 572.28 116.968 570.577 120.535C568.873 124.102 568.022 126.737 568.022 128.441C568.022 128.973 568.235 129.346 568.66 129.559C569.086 129.772 569.406 129.878 569.619 129.878C570.364 129.878 571.721 129.08 573.691 127.482C575.661 125.885 577.844 123.729 580.239 121.014C582.635 118.299 585.11 115.132 587.666 111.512C590.221 107.892 592.457 104.059 594.373 100.013Z" fill="#000000" fill-rule="nonzero" opacity="1" stroke="none"/>
<path d="M661.794 113.907C659.984 116.143 657.828 118.459 655.326 120.855C652.824 123.25 650.109 125.433 647.181 127.403C644.253 129.372 641.218 130.969 638.077 132.194C634.936 133.418 631.822 134.03 628.734 134.03C623.73 134.03 621.228 131.795 621.228 127.323C621.228 124.341 622 121.121 623.544 117.66C625.088 114.2 627.084 111.006 629.533 108.078C631.982 105.15 634.67 102.701 637.598 100.731C640.526 98.7615 643.321 97.7766 645.983 97.7766C647.473 97.7766 648.511 98.0428 649.097 98.5752C649.683 99.1075 649.975 99.7996 649.975 100.651C649.975 101.929 649.576 103.313 648.778 104.804C647.979 106.294 646.781 107.705 645.184 109.036C643.587 110.367 641.564 111.485 639.115 112.39C636.666 113.295 633.738 113.747 630.331 113.747C629.799 114.706 629.213 116.223 628.575 118.299C627.936 120.375 627.616 122.478 627.616 124.608C627.616 128.973 629.586 131.156 633.526 131.156C635.974 131.156 638.503 130.57 641.112 129.399C643.72 128.228 646.249 126.764 648.698 125.007C651.147 123.25 653.409 121.334 655.485 119.257C657.562 117.181 659.292 115.238 660.676 113.428C660.889 113.215 661.128 113.162 661.395 113.268C661.661 113.375 661.794 113.588 661.794 113.907ZM645.025 101.45C645.025 100.066 644.332 99.3737 642.948 99.3737C641.884 99.3737 640.792 99.773 639.674 100.572C638.556 101.37 637.465 102.408 636.4 103.686C635.336 104.964 634.324 106.348 633.366 107.838C632.408 109.329 631.609 110.766 630.97 112.15C631.183 112.257 631.556 112.337 632.088 112.39C632.62 112.443 633.046 112.47 633.366 112.47C636.453 112.47 639.169 111.378 641.511 109.196C643.853 107.013 645.025 104.431 645.025 101.45Z" fill="#000000" fill-rule="nonzero" opacity="1" stroke="none"/>
<path d="M716.757 112.31C714.841 114.972 712.631 117.66 710.129 120.375C707.627 123.09 704.965 125.513 702.144 127.642C699.322 129.772 696.447 131.528 693.519 132.913C690.592 134.297 687.743 134.989 684.975 134.989C683.697 134.989 682.526 134.802 681.462 134.43C680.397 134.057 679.864 133.125 679.864 131.635C679.864 130.144 680.397 128.254 681.462 125.965C682.526 123.676 683.777 121.254 685.215 118.698C686.652 116.143 688.143 113.535 689.686 110.873C691.23 108.211 692.481 105.762 693.44 103.526C693.653 102.994 693.679 102.541 693.519 102.169C693.36 101.796 693.014 101.769 692.481 102.089C691.31 102.834 689.926 103.846 688.329 105.123C686.732 106.401 685.108 107.758 683.458 109.196C681.808 110.633 680.21 112.097 678.667 113.588C677.123 115.078 675.872 116.409 674.913 117.581C673.21 120.242 671.746 122.691 670.521 124.927C669.297 127.163 667.78 129.665 665.97 132.433C665.544 133.072 665.224 133.392 665.012 133.392C664.479 133.392 664.027 132.806 663.654 131.635C663.281 130.464 663.095 129.718 663.095 129.399C663.095 128.441 663.76 127.136 665.091 125.486C666.422 123.836 667.886 121.999 669.483 119.976C671.187 116.569 672.944 112.976 674.754 109.196C676.564 105.416 678.108 102.036 679.385 99.0543C679.705 98.5219 680.184 98.2558 680.823 98.2558C681.462 98.2558 682.047 98.5219 682.579 99.0543C683.112 99.5867 683.378 100.172 683.378 100.811C683.378 101.237 682.606 102.701 681.062 105.203C679.518 107.705 678.001 110.607 676.511 113.907C678.534 112.097 680.743 110.181 683.138 108.158C685.534 106.135 687.823 104.271 690.006 102.568C692.189 100.864 694.105 99.4536 695.755 98.3356C697.406 97.2177 698.55 96.6587 699.189 96.6587C699.615 96.6587 700.014 96.8982 700.387 97.3774C700.76 97.8565 700.946 98.309 700.946 98.7349C700.946 99.1608 700.68 99.7996 700.147 100.651C698.976 102.355 697.539 104.538 695.835 107.199C694.132 109.861 692.508 112.603 690.964 115.424C689.42 118.246 688.116 120.934 687.051 123.49C685.987 126.045 685.454 128.068 685.454 129.559C685.454 130.836 685.72 131.715 686.253 132.194C686.785 132.673 687.637 132.913 688.808 132.913C690.618 132.913 692.748 132.22 695.196 130.836C697.645 129.452 700.174 127.722 702.783 125.646C705.391 123.57 707.867 121.254 710.209 118.698C712.551 116.143 714.468 113.694 715.959 111.352C716.171 111.032 716.491 110.953 716.917 111.112C717.343 111.272 717.289 111.671 716.757 112.31Z" fill="#000000" fill-rule="nonzero" opacity="1" stroke="none"/>
<g opacity="1">
<path d="M263.714 45.467C263.048 43.7669 262.362 40.2353 262.9 36.6638C263.437 33.0919 265.197 29.5088 267.438 26.6546C269.695 23.787 272.435 21.6485 273.922 20.581C275.423 19.4991 275.671 19.4883 276.155 21.2202C276.64 22.9517 277.36 26.4265 277.119 29.7843C276.882 33.1135 275.7 36.3119 273.639 39.1358C271.591 41.9746 268.653 44.423 266.854 45.7179C265.054 47.0123 264.395 47.1549 263.714 45.467L263.714 45.467Z" fill="#000000" fill-rule="evenodd" opacity="1" stroke="none"/>
<path d="M264.293 44.0148C263.717 42.5219 263.137 39.4144 263.64 36.2608C264.143 33.1068 265.727 29.9321 267.732 27.3957C269.751 24.8473 272.192 22.9374 273.515 21.9829C274.852 21.0156 275.071 21.0039 275.486 22.5265C275.902 24.0487 276.512 27.1058 276.273 30.0683C276.038 33.0056 274.968 35.836 273.123 38.3441C271.289 40.8652 268.67 43.0501 267.069 44.2079C265.467 45.3652 264.882 45.4968 264.293 44.0148L264.293 44.0148Z" fill="#4c7a3e" fill-rule="evenodd" opacity="1" stroke="none"/>
<path d="M269.618 42.5894C271.261 41.6054 272.149 39.7174 273.519 38.0208C274.867 36.318 276.684 34.8161 279.189 33.9894C281.679 33.1719 284.849 33.0166 288.315 34.6009C291.795 36.1768 295.565 39.4777 297.468 43.9846C299.349 48.4861 299.336 54.1747 298.253 59.3174C297.185 64.4512 295.047 69.0396 293.52 71.727C291.979 74.4228 291.062 75.2085 289.863 75.3651C288.664 75.522 287.183 75.0499 286.477 75.0816C285.757 75.1218 285.799 75.6742 285.347 76.585C284.88 77.5047 283.919 78.7822 282.841 79.6729C281.758 80.5857 280.562 81.0879 277.697 81.1044C274.841 81.1347 270.308 80.6653 265.905 78.4105C261.489 76.1656 257.189 72.1437 254.885 67.9344C252.589 63.7392 252.261 59.3725 252.741 56.0107C253.215 52.6715 254.483 50.3448 256.358 48.4771C258.24 46.6226 260.72 45.213 263.151 44.4527C265.595 43.6836 267.983 43.5885 269.618 42.5894L269.618 42.5894Z" fill="#000000" fill-rule="evenodd" opacity="1" stroke="none"/>
<path d="M268.521 43.9295C267.014 44.9602 263.816 46.3624 260.461 46.4726C257.105 46.5833 253.618 45.3998 250.758 43.5652C247.884 41.7174 245.636 39.2175 244.503 37.8439C243.355 36.4572 243.32 36.1957 244.874 35.3521C246.427 34.5079 249.569 33.081 252.698 32.6962C255.8 32.3126 258.874 32.9574 261.688 34.6053C264.515 36.2373 267.069 38.8884 268.443 40.5503C269.817 42.2127 270.014 42.8854 268.521 43.9295L268.521 43.9295Z" fill="#000000" fill-rule="evenodd" opacity="1" stroke="none"/>
<path d="M269.529 43.8564C271.065 42.9333 271.914 41.2005 273.208 39.6337C274.482 38.0616 276.188 36.6644 278.521 35.8699C280.841 35.0839 283.781 34.889 286.972 36.2719C290.175 37.6468 293.624 40.5863 295.325 44.6547C297.006 48.7184 296.914 53.8944 295.839 58.5917C294.776 63.2807 292.731 67.4916 291.277 69.9626C289.811 72.4413 288.95 73.1717 287.836 73.3345C286.723 73.4975 285.357 73.093 284.702 73.1338C284.034 73.1826 284.066 73.6844 283.633 74.5208C283.188 75.3654 282.279 76.544 281.267 77.3727C280.25 78.2215 279.135 78.6986 276.479 78.7621C273.831 78.838 269.635 78.4876 265.585 76.5106C261.523 74.5429 257.594 70.9563 255.517 67.1655C253.447 63.3873 253.205 59.4199 253.696 56.3531C254.182 53.3069 255.39 51.1686 257.154 49.4376C258.925 47.7184 261.244 46.394 263.508 45.6611C265.784 44.92 267.999 44.7931 269.529 43.8564L269.529 43.8564Z" fill="#9d1b1b" fill-rule="evenodd" opacity="1" stroke="none"/>
<path d="M267.835 43.4368C266.391 44.4228 263.337 45.7873 260.156 45.9573C256.974 46.1279 253.691 45.1014 251.011 43.4586C248.319 41.8039 246.232 39.532 245.181 38.2816C244.116 37.0194 244.087 36.7777 245.574 35.9642C247.06 35.1502 250.061 33.7638 253.032 33.3439C255.977 32.9255 258.879 33.461 261.518 34.9316C264.169 36.3873 266.544 38.7932 267.818 40.3059C269.093 41.8192 269.268 42.4387 267.835 43.4368L267.835 43.4368Z" fill="#4c7a3e" fill-rule="evenodd" opacity="1" stroke="none"/>
</g>
<path d="M219.14 173.494L219.14 150.973L222.367 150.973L222.367 170.267L228.756 170.267L228.756 173.494L219.14 173.494Z" fill="#000000" fill-rule="nonzero" opacity="1" stroke="none"/>
<path d="M252.622 157.457L252.622 173.494L249.396 173.494L249.396 171.944L249.333 171.944C248.995 172.45 248.589 172.866 248.115 173.193C247.64 173.52 247.034 173.684 246.296 173.684C245.895 173.684 245.495 173.615 245.094 173.478C244.693 173.341 244.335 173.114 244.019 172.798C243.702 172.482 243.449 172.076 243.26 171.58C243.07 171.085 242.975 170.478 242.975 169.761L242.975 157.457L246.201 157.457L246.201 168.559C246.201 169.15 246.338 169.614 246.612 169.951C246.887 170.288 247.277 170.457 247.783 170.457C248.394 170.457 248.816 170.267 249.048 169.888C249.28 169.508 249.396 168.96 249.396 168.243L249.396 157.457L252.622 157.457Z" fill="#000000" fill-rule="nonzero" opacity="1" stroke="none"/>
<path d="M265.924 173.494L269.878 165.301L266.114 157.457L269.53 157.457L271.522 162.012L273.515 157.457L276.931 157.457L273.104 165.301L277.121 173.494L273.705 173.494L271.522 168.591L269.34 173.494L265.924 173.494Z" fill="#000000" fill-rule="nonzero" opacity="1" stroke="none"/>
<path d="M300.07 157.457L300.07 173.494L296.844 173.494L296.844 171.944L296.781 171.944C296.443 172.45 296.037 172.866 295.563 173.193C295.088 173.52 294.482 173.684 293.744 173.684C293.343 173.684 292.943 173.615 292.542 173.478C292.141 173.341 291.783 173.114 291.467 172.798C291.15 172.482 290.897 172.076 290.707 171.58C290.518 171.085 290.423 170.478 290.423 169.761L290.423 157.457L293.649 157.457L293.649 168.559C293.649 169.15 293.786 169.614 294.06 169.951C294.334 170.288 294.725 170.457 295.231 170.457C295.842 170.457 296.264 170.267 296.496 169.888C296.728 169.508 296.844 168.96 296.844 168.243L296.844 157.457L300.07 157.457Z" fill="#000000" fill-rule="nonzero" opacity="1" stroke="none"/>
<path d="M315.048 173.494L315.048 157.457L318.274 157.457L318.274 159.165C318.928 158.575 319.571 158.111 320.204 157.773C320.837 157.436 321.617 157.267 322.545 157.267L322.545 160.683C322.228 160.557 321.901 160.493 321.564 160.493C321.227 160.493 320.863 160.551 320.473 160.667C320.083 160.783 319.729 160.978 319.413 161.253C319.076 161.527 318.802 161.885 318.591 162.328C318.38 162.771 318.274 163.319 318.274 163.973L318.274 173.494L315.048 173.494Z" fill="#000000" fill-rule="nonzero" opacity="1" stroke="none"/>
<path d="M335.372 157.457L338.788 157.457L341.002 167.452L341.065 167.452L343.248 157.457L346.569 157.457L341.951 176.277C341.782 176.994 341.545 177.585 341.239 178.049C340.933 178.513 340.58 178.892 340.18 179.187C339.779 179.483 339.352 179.688 338.899 179.804C338.445 179.92 337.976 179.978 337.491 179.978L336.605 179.978L336.605 176.942L337.333 176.942C337.649 176.942 337.923 176.899 338.155 176.815C338.387 176.731 338.598 176.541 338.788 176.246C338.957 175.95 339.115 175.534 339.262 174.996C339.41 174.459 339.579 173.715 339.768 172.766L335.372 157.457Z" fill="#000000" fill-rule="nonzero" opacity="1" stroke="none"/>
<path d="M451.398 173.494L451.398 150.973L454.625 150.973L454.625 170.267L461.014 170.267L461.014 173.494L451.398 173.494Z" fill="#000000" fill-rule="nonzero" opacity="1" stroke="none"/>
<path d="M474.948 162.834C474.948 162.18 474.991 161.579 475.075 161.031C475.159 160.483 475.317 159.998 475.549 159.576C475.929 158.88 476.472 158.321 477.178 157.9C477.885 157.478 478.744 157.267 479.756 157.267C480.768 157.267 481.628 157.478 482.334 157.9C483.041 158.321 483.584 158.88 483.963 159.576C484.195 159.998 484.353 160.483 484.438 161.031C484.522 161.579 484.564 162.18 484.564 162.834L484.564 168.117C484.564 168.77 484.522 169.371 484.438 169.919C484.353 170.468 484.195 170.953 483.963 171.374C483.584 172.07 483.041 172.629 482.334 173.051C481.628 173.473 480.768 173.684 479.756 173.684C478.744 173.684 477.885 173.473 477.178 173.051C476.472 172.629 475.929 172.07 475.549 171.374C475.317 170.953 475.159 170.468 475.075 169.919C474.991 169.371 474.948 168.77 474.948 168.117L474.948 162.834ZM478.175 168.623C478.175 169.234 478.317 169.693 478.602 169.999C478.886 170.304 479.271 170.457 479.756 170.457C480.241 170.457 480.626 170.304 480.911 169.999C481.195 169.693 481.338 169.234 481.338 168.623L481.338 162.328C481.338 161.717 481.195 161.258 480.911 160.952C480.626 160.646 480.241 160.493 479.756 160.493C479.271 160.493 478.886 160.646 478.602 160.952C478.317 161.258 478.175 161.717 478.175 162.328L478.175 168.623Z" fill="#000000" fill-rule="nonzero" opacity="1" stroke="none"/>
<path d="M502.484 168.275C502.484 168.928 502.61 169.456 502.863 169.856C503.116 170.257 503.517 170.457 504.065 170.457C504.55 170.457 504.94 170.273 505.236 169.904C505.531 169.535 505.679 169.055 505.679 168.464L505.679 162.233C505.679 161.727 505.526 161.311 505.22 160.984C504.914 160.657 504.529 160.493 504.065 160.493C503.454 160.493 503.037 160.683 502.816 161.063C502.594 161.442 502.484 161.885 502.484 162.391L502.484 168.275ZM505.679 173.494L505.679 172.039C505.468 172.271 505.267 172.487 505.078 172.687C504.888 172.888 504.677 173.061 504.445 173.209C504.213 173.357 503.949 173.473 503.654 173.557C503.359 173.641 503.011 173.684 502.61 173.684C501.261 173.684 500.322 173.177 499.795 172.165C499.605 171.807 499.468 171.364 499.384 170.837C499.3 170.31 499.257 169.603 499.257 168.717L499.257 162.613C499.257 161.453 499.289 160.599 499.352 160.051C499.479 158.996 499.974 158.205 500.839 157.678C501.24 157.404 501.841 157.267 502.642 157.267C503.275 157.267 503.839 157.409 504.334 157.694C504.83 157.979 505.257 158.385 505.615 158.912L505.679 158.912L505.679 150.973L508.905 150.973L508.905 173.494L505.679 173.494Z" fill="#000000" fill-rule="nonzero" opacity="1" stroke="none"/>
<path d="M527.109 175.36C527.13 175.74 527.283 176.098 527.568 176.435C527.853 176.773 528.269 176.942 528.817 176.942C529.344 176.942 529.724 176.778 529.956 176.451C530.188 176.124 530.304 175.708 530.304 175.202L530.304 172.039L530.241 172.039C529.882 172.566 529.455 172.972 528.96 173.257C528.464 173.541 527.889 173.684 527.236 173.684C525.886 173.684 524.948 173.177 524.421 172.165C524.231 171.807 524.094 171.364 524.009 170.837C523.925 170.31 523.883 169.603 523.883 168.717L523.883 162.613C523.883 161.453 523.914 160.599 523.978 160.051C524.104 158.996 524.6 158.205 525.464 157.678C525.865 157.404 526.466 157.267 527.267 157.267C527.668 157.267 528.011 157.309 528.295 157.394C528.58 157.478 528.838 157.594 529.07 157.742C529.302 157.889 529.513 158.063 529.703 158.263C529.893 158.464 530.093 158.68 530.304 158.912L530.304 157.457L533.53 157.457L533.53 175.455C533.53 176.003 533.441 176.557 533.261 177.116C533.082 177.674 532.792 178.175 532.392 178.618C531.991 179.082 531.485 179.456 530.873 179.741C530.262 180.026 529.534 180.168 528.691 180.168C528.206 180.168 527.7 180.089 527.172 179.931C526.645 179.772 526.16 179.504 525.717 179.124C525.254 178.766 524.858 178.286 524.531 177.685C524.204 177.084 523.988 176.309 523.883 175.36L527.109 175.36ZM527.109 168.559C527.109 169.065 527.22 169.508 527.441 169.888C527.663 170.267 528.079 170.457 528.691 170.457C529.155 170.457 529.54 170.294 529.845 169.967C530.151 169.64 530.304 169.224 530.304 168.717L530.304 162.486C530.304 161.896 530.156 161.416 529.861 161.047C529.566 160.678 529.176 160.493 528.691 160.493C528.142 160.493 527.742 160.694 527.489 161.094C527.236 161.495 527.109 162.022 527.109 162.676L527.109 168.559Z" fill="#000000" fill-rule="nonzero" opacity="1" stroke="none"/>
<path d="M557.839 166.693L551.45 166.693L551.45 168.876C551.45 169.382 551.592 169.772 551.877 170.046C552.162 170.32 552.546 170.457 553.031 170.457C553.643 170.457 554.049 170.278 554.249 169.919C554.45 169.561 554.571 169.203 554.613 168.844L557.839 168.844C557.839 170.257 557.407 171.396 556.543 172.26C556.121 172.703 555.615 173.051 555.024 173.304C554.434 173.557 553.77 173.684 553.031 173.684C552.019 173.684 551.16 173.473 550.454 173.051C549.747 172.629 549.204 172.07 548.825 171.374C548.593 170.953 548.434 170.468 548.35 169.919C548.266 169.371 548.224 168.77 548.224 168.117L548.224 162.834C548.224 162.18 548.266 161.579 548.35 161.031C548.434 160.483 548.593 159.998 548.825 159.576C549.204 158.88 549.747 158.321 550.454 157.9C551.16 157.478 552.019 157.267 553.031 157.267C553.77 157.267 554.439 157.394 555.04 157.647C555.641 157.9 556.152 158.248 556.574 158.69C557.418 159.639 557.839 160.831 557.839 162.265L557.839 166.693ZM551.45 164.163L554.613 164.163L554.613 162.328C554.613 161.717 554.471 161.258 554.186 160.952C553.901 160.646 553.516 160.493 553.031 160.493C552.546 160.493 552.162 160.646 551.877 160.952C551.592 161.258 551.45 161.717 551.45 162.328L551.45 164.163Z" fill="#000000" fill-rule="nonzero" opacity="1" stroke="none"/>
<path d="M578.384 161.948C578.363 161.4 578.189 160.989 577.862 160.715C577.536 160.441 577.161 160.304 576.74 160.304C576.233 160.304 575.843 160.467 575.569 160.794C575.295 161.121 575.158 161.495 575.158 161.917C575.158 162.212 575.232 162.502 575.379 162.787C575.527 163.071 575.907 163.33 576.518 163.562L578.416 164.321C579.618 164.785 580.446 165.417 580.899 166.219C581.352 167.02 581.579 167.895 581.579 168.844C581.579 169.519 581.458 170.146 581.215 170.726C580.973 171.306 580.641 171.817 580.219 172.26C579.797 172.703 579.291 173.051 578.701 173.304C578.11 173.557 577.467 173.684 576.771 173.684C575.464 173.684 574.367 173.272 573.482 172.45C573.039 172.049 572.68 171.548 572.406 170.947C572.132 170.346 571.984 169.645 571.963 168.844L575 168.844C575.063 169.287 575.216 169.698 575.459 170.078C575.701 170.457 576.128 170.647 576.74 170.647C577.204 170.647 577.62 170.494 577.989 170.188C578.358 169.883 578.543 169.456 578.543 168.907C578.543 168.464 578.427 168.085 578.195 167.769C577.963 167.452 577.541 167.178 576.929 166.946L575.379 166.377C574.367 165.997 573.571 165.433 572.991 164.685C572.411 163.936 572.121 163.024 572.121 161.948C572.121 161.274 572.248 160.646 572.501 160.066C572.754 159.487 573.102 158.986 573.545 158.564C573.967 158.142 574.462 157.821 575.032 157.599C575.601 157.378 576.212 157.267 576.866 157.267C577.52 157.267 578.126 157.383 578.685 157.615C579.244 157.847 579.723 158.174 580.124 158.596C580.525 159.017 580.841 159.518 581.073 160.098C581.305 160.678 581.421 161.295 581.421 161.948L578.384 161.948Z" fill="#000000" fill-rule="nonzero" opacity="1" stroke="none"/>
</g>
</svg>
